<?xml version="1.0" encoding="UTF-8"?>
<svg width="48px" height="48px" version="1.1" viewBox="0 0 256 256" xmlns="http://www.w3.org/2000/svg">
<g fill="none" font-family="none" font-size="none" font-weight="none" stroke-dasharray="" stroke-miterlimit="10" text-anchor="none" style="mix-blend-mode:normal">
<g transform="scale(.5)">
<path d="m255.15 59.41c108.57 0.08 196.52 88.16 196.44 196.74s-88.16 196.52-196.74 196.44-196.52-88.16-196.44-196.74 88.16-196.52 196.74-196.44zm98.92 225.39 0.04-57.45-70.36-0.05 0.05-70.36-57.44-0.05-0.05 70.37-70.37-0.06-0.04 57.45 70.37 0.05-0.06 70.36 57.44 0.05 0.06-70.37z" fill="#0eb4f0"/>
<path d="m354.11 227.35-0.04 57.45-70.36-0.06-0.06 70.37-57.44-0.05 0.06-70.36-70.37-0.05 0.04-57.45 70.37 0.06 0.05-70.37 57.44 0.05-0.05 70.36z" fill="#00efd1"/>
<g fill="#083863">
<path d="m254.84 463h0.158c113.84 0 206.51-92.987 206.59-206.84 0.081-113.92-92.525-207.16-206.44-207.16h-0.158c-113.84 0-206.51 92.987-206.59 206.84-0.084 113.92 92.522 207.16 206.43 207.16zm0.158-394h0.14c102.88 0 186.52 84.254 186.45 187.14-0.073 102.84-83.762 186.86-186.59 186.86h-0.14c-102.89 0-186.53-84.254-186.45-187.14 0.076-102.84 83.765-186.86 186.59-186.86z"/>
<path d="m155.89 294.65 60.367 0.043-0.051 60.359c-2e-5 2.6463 1.0538 5.1837 2.9286 7.0513 1.8748 1.8676 4.4161 2.9118 7.0624 2.9017h57.449c2.6441 0.02536 5.1886-1.0075 7.0668-2.8687s2.9344-4.3961 2.9332-7.0403l0.051-60.256 60.361 0.165h8e-3c5.5395-0.09313 9.9855-4.6027 10-10.143l0.04-57.475c0.00553-5.5255-4.4675-10.01-9.993-10.019l-60.36-0.05 0.043-60.363c2e-5 -2.6465-1.0538-5.184-2.9285-7.052-1.8747-1.868-4.4161-2.9126-7.0625-2.903h-57.449c-2.6441-0.02482-5.1884 1.0084-7.0666 2.8697s-2.9344 4.3961-2.9334 7.0403l-0.044 60.255-60.367-0.165h-9e-3c-5.5391 0.09419-9.9845 4.6032-10 10.143l-0.04 57.475c-0.00609 5.5282 4.4658 10.017 9.994 10.032zm10.04-57.571 60.366-0.079h9e-3c2.6351 0.05902 5.1825-0.94798 7.065-2.7928 1.8825-1.8449 2.9408-4.3714 2.935-7.0072l0.044-60.336 37.439 0.049-0.043 60.369c-0.00318 2.653 1.048 5.1986 2.9222 7.0764s4.4178 2.9338 7.0708 2.9356l60.361 0.045-0.027 37.579-60.358 0.08h-9e-3c-2.6351-0.05902-5.1825 0.94798-7.065 2.7928-1.8825 1.8449-2.9408 4.3714-2.935 7.0072l-0.051 60.337-37.44-0.049 0.051-60.368c0.00553-5.5252-4.4688-10.009-9.994-10.015l-60.369-0.109z"/>
</g>
</g>
</g>
</svg>
